<svg width="128" height="128" viewBox="0 0 24 24" fill="none" xmlns="http://www.w3.org/2000/svg">
  <path d="M17.753 14C18.9957 14 20.0031 15.0074 20.0031 16.25V17.155C20.0031 18.2487 19.5256 19.2879 18.6958 20.0003C17.1303 21.3442 14.89 22.0011 12 22.0011C9.1105 22.0011 6.87168 21.3445 5.30882 20.0008C4.4802 19.2884 4.00354 18.25 4.00354 17.1572V16.25C4.00354 15.0074 5.0109 14 6.25354 14H17.753ZM11.8986 2.00734L12.0003 2.00049C12.38 2.00049 12.6938 2.28265 12.7435 2.64872L12.7503 2.75049L12.7495 3.49949L16.25 3.5C17.4926 3.5 18.5 4.50736 18.5 5.75V10.2546C18.5 11.4972 17.4926 12.5046 16.25 12.5046H7.75C6.50736 12.5046 5.5 11.4972 5.5 10.2546V5.75C5.5 4.50736 6.50736 3.5 7.75 3.5L11.2495 3.49949L11.2503 2.75049C11.2503 2.3708 11.5325 2.057 11.8986 2.00734ZM9.74929 6.5C9.05933 6.5 8.5 7.05933 8.5 7.74929C8.5 8.43925 9.05933 8.99858 9.74929 8.99858C10.4393 8.99858 10.9986 8.43925 10.9986 7.74929C10.9986 7.05933 10.4393 6.5 9.74929 6.5ZM14.242 6.5C13.5521 6.5 12.9927 7.05933 12.9927 7.74929C12.9927 8.43925 13.5521 8.99858 14.242 8.99858C14.932 8.99858 15.4913 8.43925 15.4913 7.74929C15.4913 7.05933 14.932 6.5 14.242 6.5Z" fill="white"/>
</svg>
