<svg width="128" height="128" version="1.1" id="Icons" xmlns="http://www.w3.org/2000/svg" xmlns:xlink="http://www.w3.org/1999/xlink" viewBox="0 0 32 32" xml:space="preserve">
<style type="text/css">
	.st0{fill:none;stroke:#FFFFFF;stroke-width=2;stroke-linecap:round;stroke-linejoin:round;stroke-miterlimit:10;}
</style>
<line class="st0" x1="21" y1="23" x2="19" y2="29"/>
<line class="st0" x1="18" y1="21" x2="16" y2="27"/>
<line class="st0" x1="25" y1="21" x2="23" y2="27"/>
<path class="st0" d="M23.99,24.78C26.88,24.04,29,21.51,29,18.5c0-3.59-3.02-6.5-6.75-6.5c-3.21,0-5.89,2.16-6.58,5.06h-0.55 c-2.27,0-4.12,1.79-4.12,3.97S12.86,25,15.12,25h0.94"/>
<path class="st0" d="M22.99,11c-0.26-4.46-3.96-8-8.49-8c-0.73,0-1.43,0.1-2.1,0.27c1.92,0.65,3.32,2.44,3.32,4.58 c0,2.68-2.17,4.86-4.86,4.86c-2.14,0-3.94-1.39-4.58-3.32C6.1,10.07,6,10.77,6,11.5c0,3.42,2.02,6.37,4.94,7.72"/>
</svg>
